<mxfile host="app.diagrams.net" agent="Mozilla/5.0 (Windows NT 10.0; Win64; x64; rv:136.0) Gecko/20100101 Firefox/136.0" version="26.2.9">
  <diagram name="Page-1" id="S6AJ3i7T1BdjXkuu4HpV">
    <mxGraphModel dx="1001" dy="633" grid="1" gridSize="10" guides="1" tooltips="1" connect="1" arrows="1" fold="1" page="1" pageScale="1" pageWidth="850" pageHeight="1100" math="0" shadow="0">
      <root>
        <mxCell id="0" />
        <mxCell id="1" parent="0" />
        <mxCell id="RQvxdZ1syHPmtC16296F-3" value="" style="edgeStyle=orthogonalEdgeStyle;rounded=0;orthogonalLoop=1;jettySize=auto;html=1;" edge="1" parent="1" source="RQvxdZ1syHPmtC16296F-1" target="RQvxdZ1syHPmtC16296F-2">
          <mxGeometry relative="1" as="geometry" />
        </mxCell>
        <mxCell id="RQvxdZ1syHPmtC16296F-1" value="Inicio" style="ellipse;whiteSpace=wrap;html=1;aspect=fixed;" vertex="1" parent="1">
          <mxGeometry x="390" y="320" width="80" height="80" as="geometry" />
        </mxCell>
        <mxCell id="RQvxdZ1syHPmtC16296F-5" value="" style="edgeStyle=orthogonalEdgeStyle;rounded=0;orthogonalLoop=1;jettySize=auto;html=1;" edge="1" parent="1" source="RQvxdZ1syHPmtC16296F-2" target="RQvxdZ1syHPmtC16296F-4">
          <mxGeometry relative="1" as="geometry" />
        </mxCell>
        <mxCell id="RQvxdZ1syHPmtC16296F-2" value="Ingresar el valor de la base" style="shape=parallelogram;perimeter=parallelogramPerimeter;whiteSpace=wrap;html=1;fixedSize=1;" vertex="1" parent="1">
          <mxGeometry x="340" y="440" width="180" height="60" as="geometry" />
        </mxCell>
        <mxCell id="RQvxdZ1syHPmtC16296F-7" value="" style="edgeStyle=orthogonalEdgeStyle;rounded=0;orthogonalLoop=1;jettySize=auto;html=1;" edge="1" parent="1" source="RQvxdZ1syHPmtC16296F-4" target="RQvxdZ1syHPmtC16296F-6">
          <mxGeometry relative="1" as="geometry" />
        </mxCell>
        <mxCell id="RQvxdZ1syHPmtC16296F-4" value="Ingresar el valor de la altura" style="shape=parallelogram;perimeter=parallelogramPerimeter;whiteSpace=wrap;html=1;fixedSize=1;" vertex="1" parent="1">
          <mxGeometry x="342.5" y="550" width="175" height="60" as="geometry" />
        </mxCell>
        <mxCell id="RQvxdZ1syHPmtC16296F-9" value="" style="edgeStyle=orthogonalEdgeStyle;rounded=0;orthogonalLoop=1;jettySize=auto;html=1;" edge="1" parent="1" source="RQvxdZ1syHPmtC16296F-6" target="RQvxdZ1syHPmtC16296F-8">
          <mxGeometry relative="1" as="geometry" />
        </mxCell>
        <mxCell id="RQvxdZ1syHPmtC16296F-6" value="&lt;div&gt;Calcular el &lt;span&gt;&lt;span data-dobid=&quot;hdw&quot;&gt;área &lt;/span&gt;&lt;/span&gt;de un&amp;nbsp;&amp;nbsp;triángulo&lt;/div&gt;&lt;div&gt;(Base&lt;span&gt;&lt;span&gt;*Altura)/2&lt;/span&gt;&lt;/span&gt;&lt;/div&gt; " style="shape=parallelogram;perimeter=parallelogramPerimeter;whiteSpace=wrap;html=1;fixedSize=1;" vertex="1" parent="1">
          <mxGeometry x="330" y="670" width="200" height="60" as="geometry" />
        </mxCell>
        <mxCell id="RQvxdZ1syHPmtC16296F-11" value="" style="edgeStyle=orthogonalEdgeStyle;rounded=0;orthogonalLoop=1;jettySize=auto;html=1;" edge="1" parent="1" source="RQvxdZ1syHPmtC16296F-8" target="RQvxdZ1syHPmtC16296F-10">
          <mxGeometry relative="1" as="geometry" />
        </mxCell>
        <mxCell id="RQvxdZ1syHPmtC16296F-8" value="Revelar el &lt;span&gt;&lt;span data-dobid=&quot;hdw&quot;&gt;valor del área&lt;/span&gt;&lt;/span&gt; " style="shape=parallelogram;perimeter=parallelogramPerimeter;whiteSpace=wrap;html=1;fixedSize=1;" vertex="1" parent="1">
          <mxGeometry x="330" y="780" width="200" height="60" as="geometry" />
        </mxCell>
        <mxCell id="RQvxdZ1syHPmtC16296F-10" value="Fin" style="shape=parallelogram;perimeter=parallelogramPerimeter;whiteSpace=wrap;html=1;fixedSize=1;" vertex="1" parent="1">
          <mxGeometry x="385" y="870" width="90" height="60" as="geometry" />
        </mxCell>
      </root>
    </mxGraphModel>
  </diagram>
</mxfile>
